<?xml version="1.0" standalone="no"?>
<!DOCTYPE svg PUBLIC "-//W3C//DTD SVG 20010904//EN"
 "http://www.w3.org/TR/2001/REC-SVG-20010904/DTD/svg10.dtd">
<svg version="1.0" xmlns="http://www.w3.org/2000/svg"
 width="300.000000pt" height="162.000000pt" viewBox="0 0 300.000000 162.000000"
 preserveAspectRatio="xMidYMid meet">

<g transform="translate(0.000000,162.000000) scale(0.100000,-0.100000)"
fill="#000000" stroke="none">
<path d="M1100 1030 c0 -325 3 -411 13 -408 9 4 13 94 15 397 l2 393 148 -4
c127 -3 154 -6 197 -26 102 -47 144 -113 145 -228 0 -127 -60 -208 -175 -234
-27 -7 -56 -14 -63 -16 -10 -3 2 -34 42 -110 31 -58 56 -111 56 -117 0 -7 9
-18 20 -25 35 -22 24 17 -34 123 -30 54 -53 102 -50 107 3 4 15 8 28 8 12 0
46 12 74 26 92 46 140 144 130 267 -9 112 -65 185 -175 228 -49 18 -83 23
-215 27 l-158 4 0 -412z"/>
<path d="M2592 1428 c-18 -23 -232 -434 -232 -446 0 -37 30 10 135 208 103
194 119 220 141 220 13 0 24 -4 24 -9 0 -13 119 -770 125 -798 5 -21 2 -23
-30 -23 -28 0 -36 4 -40 23 -12 56 -85 549 -85 575 0 42 -24 59 -38 28 -6 -14
-7 -26 -2 -28 5 -2 31 -142 57 -313 l48 -310 54 -3 c30 -2 57 0 62 5 8 8 -122
851 -135 871 -10 16 -71 15 -84 0z"/>
<path d="M1014 1414 c-5 -10 -8 -209 -6 -441 l2 -423 105 0 105 0 0 166 0 165
27 -3 c25 -3 38 -21 115 -163 l86 -160 116 -3 c79 -2 116 1 116 8 0 22 -155
299 -167 300 -7 0 -13 -3 -13 -7 0 -5 32 -66 70 -138 39 -71 70 -133 70 -137
0 -4 -38 -8 -84 -8 l-85 0 -87 163 c-48 89 -92 165 -98 170 -6 4 -29 6 -51 5
l-40 -3 -3 -162 -2 -163 -75 0 -75 0 0 410 c1 390 -4 472 -26 424z"/>
<path d="M204 1404 c-5 -10 -8 -207 -6 -436 l2 -418 229 0 c246 0 282 6 347
55 17 13 44 48 58 77 36 72 37 192 3 260 l-23 46 19 39 c49 94 28 252 -42 322
-61 61 -106 71 -318 71 l-183 0 0 -180 0 -180 170 0 c168 0 171 0 195 25 20
19 25 34 25 74 0 86 -59 116 -220 109 l-75 -3 -3 -59 c-2 -44 0 -57 10 -54 7
3 14 23 16 46 l3 42 89 0 c49 0 100 -5 114 -11 53 -25 57 -110 5 -136 -15 -8
-72 -13 -161 -13 l-138 0 0 155 0 155 173 0 c161 0 175 -2 224 -24 78 -37 107
-86 112 -193 3 -74 0 -90 -23 -137 l-27 -54 25 -36 c48 -72 42 -207 -13 -284
-17 -22 -50 -49 -77 -63 -46 -22 -61 -24 -267 -27 l-218 -4 1 411 c1 393 -4
474 -26 425z"/>
<path d="M2040 1386 c0 -14 4 -27 9 -31 5 -3 78 -136 161 -296 84 -159 157
-288 163 -286 6 2 42 63 80 136 38 73 73 129 77 124 3 -4 23 -109 44 -233 43
-257 43 -257 57 -243 7 7 -4 95 -36 279 -25 147 -48 270 -50 272 -10 10 -29
-19 -97 -148 -40 -77 -75 -140 -78 -140 -8 1 -290 547 -290 563 0 12 -19 27
-36 27 -2 0 -4 -11 -4 -24z"/>
<path d="M1946 1348 c-7 -29 -116 -764 -116 -778 0 -6 38 -10 99 -10 l100 0
10 53 c6 28 13 70 17 92 4 22 11 43 16 46 6 4 6 15 -2 29 -11 21 -12 21 -32 4
-11 -10 -15 -20 -11 -21 6 -2 3 -43 -5 -93 l-15 -90 -73 0 c-41 0 -74 3 -74 8
0 15 102 698 106 712 3 8 93 -149 202 -348 108 -199 199 -362 203 -362 4 0 38
54 74 121 44 80 63 125 57 131 -10 10 -17 -1 -95 -141 l-36 -65 -16 30 c-9 16
-99 179 -198 363 -100 184 -187 336 -194 339 -7 2 -15 -7 -17 -20z"/>
<path d="M380 1331 c0 -7 39 -11 113 -11 136 0 176 -10 215 -54 57 -66 50
-179 -15 -237 l-35 -31 -162 3 c-163 2 -204 -3 -174 -25 10 -7 69 -9 181 -6
147 4 169 7 193 26 55 40 69 70 72 152 3 67 1 81 -20 111 -48 70 -64 76 -224
79 -98 2 -144 0 -144 -7z"/>
<path d="M1190 1285 l0 -55 85 0 c102 0 151 -17 161 -54 15 -61 -52 -100 -161
-94 l-60 3 -3 35 c-6 61 -22 59 -22 -3 l0 -57 95 0 c132 0 175 24 175 99 0 71
-34 91 -155 91 l-85 0 0 30 0 30 103 0 c116 0 149 -13 186 -74 28 -45 30 -123
4 -167 -30 -53 -83 -73 -197 -76 -103 -2 -121 -7 -94 -27 26 -19 217 5 263 34
111 69 94 265 -28 321 -33 15 -66 19 -154 19 l-113 0 0 -55z"/>
<path d="M2002 1079 c-5 -13 -21 -103 -37 -199 -15 -96 -31 -179 -35 -183 -9
-11 -1 -47 11 -47 12 0 23 22 25 50 2 40 44 293 52 313 5 13 41 -46 131 -215
126 -237 144 -267 154 -251 6 9 -263 526 -283 547 -6 6 -13 -1 -18 -15z"/>
<path d="M676 971 c-3 -4 6 -19 20 -32 56 -52 70 -132 36 -198 -35 -70 -54
-76 -243 -79 l-169 -4 0 111 0 111 153 0 c174 0 187 -5 187 -73 0 -56 -24 -67
-148 -67 -91 0 -103 2 -98 16 3 9 0 25 -8 36 -14 19 -15 19 -24 1 -6 -10 -8
-31 -5 -46 l5 -27 133 0 c132 0 134 0 154 26 32 41 28 98 -8 135 l-29 29 -171
0 -171 0 0 -135 0 -135 183 0 c153 0 187 3 217 18 92 46 117 189 49 276 -24
31 -56 50 -63 37z"/>
<path d="M1390 305 l0 -115 25 0 25 0 0 115 0 115 -25 0 -25 0 0 -115z"/>
<path d="M1490 395 c0 -16 -6 -25 -15 -25 -8 0 -15 -9 -15 -20 0 -11 7 -20 15
-20 11 0 15 -11 15 -42 0 -24 3 -53 6 -65 11 -40 104 -51 104 -13 0 14 -7 18
-27 17 -27 -2 -28 0 -31 51 l-3 52 30 0 c24 0 31 4 31 20 0 16 -7 20 -30 20
-25 0 -30 4 -30 25 0 20 -5 25 -25 25 -20 0 -25 -5 -25 -25z"/>
<path d="M1192 360 c-34 -14 -54 -69 -41 -114 5 -19 20 -41 31 -47 29 -16 94
-15 113 1 10 8 15 9 15 1 0 -6 11 -11 25 -11 25 0 25 1 25 85 l0 85 -37 0
c-21 -1 -54 2 -73 4 -19 3 -45 1 -58 -4z m104 -53 c31 -27 28 -47 -10 -73 -55
-35 -117 18 -82 71 21 32 56 33 92 2z"/>
<path d="M1674 361 c-47 -20 -68 -86 -43 -133 6 -11 26 -26 45 -34 29 -12 39
-12 74 0 22 7 40 10 40 5 0 -5 9 -9 20 -9 18 0 20 7 20 85 l0 85 -32 -1 c-18
-1 -49 1 -68 5 -19 3 -45 2 -56 -3z m94 -47 c34 -24 29 -61 -12 -81 -32 -15
-37 -15 -60 1 -30 19 -34 56 -10 80 20 20 53 20 82 0z"/>
<path d="M811 306 c-32 -38 9 -103 48 -79 15 10 21 10 24 0 3 -7 6 13 6 43 0
34 -3 50 -8 41 -6 -9 -11 -10 -15 -2 -10 16 -41 14 -55 -3z m63 -18 c15 -25
-4 -53 -35 -53 -25 0 -37 30 -25 61 8 20 46 14 60 -8z"/>
<path d="M932 270 c1 -39 2 -44 5 -18 8 73 59 78 66 6 l4 -43 1 41 c2 50 -19
75 -48 56 -14 -9 -20 -8 -23 1 -3 7 -5 -13 -5 -43z"/>
<path d="M1986 304 c-19 -18 -21 -55 -4 -72 7 -7 23 -12 38 -11 l25 1 -24 7
c-49 13 -54 63 -9 81 16 6 18 9 6 9 -9 1 -24 -6 -32 -15z"/>
<path d="M2120 307 c29 -14 37 -41 20 -62 -30 -37 -82 3 -60 45 6 11 8 20 6
20 -3 0 -10 -9 -16 -21 -14 -26 11 -69 40 -69 24 0 50 26 50 50 0 23 -26 50
-48 50 -12 0 -9 -4 8 -13z"/>
<path d="M2192 270 c1 -38 3 -44 5 -20 3 19 10 41 16 49 9 11 9 13 0 8 -6 -4
-14 -1 -16 5 -3 7 -5 -12 -5 -42z"/>
<path d="M2243 309 c11 -7 17 -23 18 -52 l1 -42 7 35 c4 20 10 41 15 48 4 8 2
10 -7 6 -8 -3 -18 -1 -22 5 -3 6 -12 11 -18 11 -7 0 -4 -5 6 -11z"/>
<path d="M2313 309 c11 -7 18 -24 19 -52 l1 -42 4 38 c4 38 -9 67 -31 67 -6 0
-3 -5 7 -11z"/>
<path d="M2398 309 c-18 -10 -25 -63 -10 -73 5 -3 7 7 4 23 -5 34 22 60 46 44
26 -16 21 -55 -8 -70 -24 -12 -24 -13 -3 -13 38 0 56 55 27 84 -18 18 -32 20
-56 5z"/>
<path d="M2506 301 c-25 -27 -14 -69 19 -77 14 -3 32 -1 39 5 11 9 15 9 19 -1
3 -7 6 8 6 33 1 30 -3 46 -11 47 -7 0 -22 3 -33 7 -14 4 -27 0 -39 -14z m58
-10 c33 -36 -18 -83 -52 -49 -23 23 -7 68 23 68 7 0 20 -9 29 -19z"/>
<path d="M2622 270 c0 -48 1 -51 7 -20 4 20 11 42 16 49 5 9 4 12 -3 7 -5 -3
-13 0 -15 6 -3 7 -5 -12 -5 -42z"/>
<path d="M2672 308 c9 -7 19 -31 21 -53 3 -32 4 -30 3 10 -1 42 -4 50 -21 53
-18 4 -19 3 -3 -10z"/>
<path d="M2790 294 c-6 -16 -13 -36 -16 -44 -4 -10 -12 -2 -24 25 -23 49 -26
39 -5 -13 9 -21 13 -48 10 -62 -4 -14 -4 -23 -2 -20 10 10 57 134 52 138 -2 3
-9 -8 -15 -24z"/>
</g>
</svg>
